<?xml version="1.0" encoding="utf-8"?><!-- Uploaded to: SVG Repo, www.svgrepo.com, Generator: SVG Repo Mixer Tools -->
<svg version="1.1" id="Uploaded to svgrepo.com" xmlns="http://www.w3.org/2000/svg" xmlns:xlink="http://www.w3.org/1999/xlink" 
	 width="800px" height="800px" viewBox="0 0 32 32" xml:space="preserve">
<style type="text/css">
	.stone_een{fill:#0B1719;}
</style>
<path class="stone_een" d="M4.686,7.515c-0.391-0.391-0.391-1.024,0-1.414l1.414-1.414c0.391-0.391,1.024-0.391,1.414,0l0.83,0.83
	C7.262,6.309,6.309,7.262,5.516,8.345L4.686,7.515z M26.484,23.655c-0.793,1.082-1.746,2.036-2.828,2.828l0.83,0.83
	c0.391,0.391,1.024,0.391,1.414,0l1.414-1.414c0.391-0.391,0.391-1.024,0-1.414L26.484,23.655z M18,3.17V2c0-0.552-0.448-1-1-1h-2
	c-0.552,0-1,0.448-1,1v1.17C14.654,3.069,15.318,3,16,3S17.346,3.069,18,3.17z M14,28.83V30c0,0.552,0.448,1,1,1h2
	c0.552,0,1-0.448,1-1v-1.17C17.346,28.931,16.682,29,16,29S14.654,28.931,14,28.83z M5.516,23.655l-0.83,0.83
	c-0.391,0.391-0.391,1.024,0,1.414l1.414,1.414c0.391,0.391,1.024,0.391,1.414,0l0.83-0.83C7.262,25.691,6.309,24.738,5.516,23.655z
	 M26.484,8.345l0.83-0.83c0.391-0.391,0.391-1.024,0-1.414l-1.414-1.414c-0.391-0.391-1.024-0.391-1.414,0l-0.83,0.83
	C24.738,6.309,25.691,7.262,26.484,8.345z M2,14c-0.552,0-1,0.448-1,1v2c0,0.552,0.448,1,1,1h1.17C3.069,17.346,3,16.682,3,16
	s0.069-1.346,0.17-2H2z M30,14h-1.17c0.102,0.654,0.17,1.318,0.17,2s-0.069,1.346-0.17,2H30c0.552,0,1-0.448,1-1v-2
	C31,14.448,30.552,14,30,14z M28,16c0,6.627-5.373,12-12,12C9.373,28,4,22.627,4,16C4,9.373,9.373,4,16,4C22.627,4,28,9.373,28,16z
	 M24.337,10.491L20.828,14h4.97C25.539,12.725,25.033,11.54,24.337,10.491z M18,11.172l3.509-3.509
	C20.46,6.967,19.275,6.461,18,6.202V11.172z M10.491,7.663L14,11.172v-4.97C12.725,6.461,11.54,6.967,10.491,7.663z M6.202,14h4.97
	l-3.509-3.509C6.967,11.54,6.461,12.725,6.202,14z M7.663,21.509L11.172,18h-4.97C6.461,19.275,6.967,20.46,7.663,21.509z
	 M14,20.828l-3.509,3.509c1.049,0.696,2.234,1.201,3.509,1.461V20.828z M16,21c2.757,0,5-2.243,5-5s-2.243-5-5-5s-5,2.243-5,5
	S13.243,21,16,21z M21.509,24.337L18,20.828v4.97C19.275,25.539,20.46,25.033,21.509,24.337z M25.798,18h-4.97l3.509,3.509
	C25.033,20.46,25.539,19.275,25.798,18z M16,12c-2.209,0-4,1.791-4,4c0,2.209,1.791,4,4,4c2.209,0,4-1.791,4-4
	C20,13.791,18.209,12,16,12z"/>
</svg>