<?xml version="1.0" encoding="UTF-8"?>
<svg id="Layer_1" data-name="Layer 1" xmlns="http://www.w3.org/2000/svg" viewBox="0 0 567.53 627.76">
  <defs>
    <style>
      .cls-1 {
        fill: #fff;
      }

      .cls-2 {
        fill: #b9c85a;
      }
    </style>
  </defs>
  <path class="cls-1" d="M451.16,509.62c-21.83,14.62-45.8,26.19-71.16,33.19-21.27,5.79-43.26,8.59-65.27,9.17-41.25-.17-82.6-11.22-117.88-32.73-23.17-13.56-44.45-30.52-61.84-51.03-14.6-16.86-26.47-35.93-36.23-55.95-17.13-37.35-24.51-79.17-20.97-120.1,3.74-44.35,21.65-86.84,48.42-122.19,24.64-32.82,58.35-58.37,95.88-74.75,24.3-10.1,50.33-15.87,76.55-17.81,9.87-.18,19.75-.16,29.61.01,25.66,2.06,51.15,7.38,75.16,16.79,18.86,7.27,36.38,17.7,52.75,29.48,17.8,12.79,33.36,28.41,47.69,44.92,4.11-2.36,7.62-5.58,11.44-8.37,17.57-13.18,35.09-26.44,52.23-40.17-35.17-40.75-78.75-74.94-128.73-95.53C393.86,5.93,344.72-1.98,296.2.42c-52.25,3.2-103.98,18.64-148.64,46.13-47.4,29.18-86.54,71.46-112.48,120.67C13.68,207.94,1.15,253.52.16,299.56c-.61,26.74.38,53.71,6.23,79.9,18.48,91,80.8,171.33,163.02,213.95,39.9,20.68,84.38,32.89,129.37,33.95,41.78,1.96,84.25-2.95,123.56-17.67,38.38-14.59,74.88-35.11,105.23-62.96,14.47-12.53,27.14-26.91,38.82-42.03-19.64-15.41-39.54-30.49-59.23-45.84-16.16,19.44-34.76,36.98-56,50.77Z"/>
  <path class="cls-2" d="M303.02,183.82c-13.49,1.07-26.8,4.22-39.29,9.59-50.32,21.63-83.59,77.57-78.57,132.11,5.02,54.54,47.94,103.47,101.36,115.55,2.32.52,4.66.98,7.01,1.36,17.37,2.84,35.28,1.83,52.32-2.47,17.08-4.31,33.35-11.91,47.59-22.29,14.13-10.3,26.27-23.39,35.03-38.55,9.05-15.65,14.42-33.29,16.19-51.25,1.77-18-.03-36.36-5.28-53.67-5.21-17.19-13.87-33.36-25.73-46.88-27.15-30.95-69.77-46.75-110.63-43.5ZM371.2,314.23c.27,13.89-5.68,27.59-15.26,37.55-11.43,12-28.37,18.36-44.86,17.21-14.26-1.03-28.15-7.67-37.55-18.48-11.17-12.69-16.38-30.68-12.85-47.3,4.03-22.51,23.18-41.48,45.9-44.71,15.33-2.69,31.71,1.63,43.81,11.4,13.17,10.57,21.44,27.36,20.8,44.33Z"/>
</svg>