<?xml version="1.0" ?><!-- Uploaded to: SVG Repo, www.svgrepo.com, Generator: SVG Repo Mixer Tools -->
<svg width="800px" height="800px" viewBox="0 0 24 24" fill="none" xmlns="http://www.w3.org/2000/svg"><path d="M3 16C4.40293 15.7662 6.63687 15.7073 8.94504 16.2427M16 21C14.2965 18.2317 11.5726 16.8522 8.94504 16.2427M8.94504 16.2427C10.8946 13.9852 14.5577 12 21 12H22M8.5 7C8 7 7 7.3 7 8.5C7 9.7 8 10 8.5 10C9 10 10 9.7 10 8.5C10 7.3 9 7 8.5 7Z" stroke="#000000" stroke-linecap="round" stroke-linejoin="round" stroke-width="2"/><path d="M22 12C22 17.5228 17.5228 22 12 22C6.47715 22 2 17.5228 2 12C2 6.47715 6.47715 2 12 2" stroke="#000000" stroke-linecap="round" stroke-linejoin="round" stroke-width="2"/><path d="M19 2V5M19 8V5M19 5H22M19 5H16" stroke="#000000" stroke-linecap="round" stroke-linejoin="round" stroke-width="2"/></svg>