<?xml version="1.0" encoding="UTF-8"?>
<svg version="1.1" xmlns="http://www.w3.org/2000/svg" width="80" height="80">
<path d="M0 0 C1.09841721 -0.01929062 2.19683441 -0.03858124 3.32853699 -0.05845642 C8.36417448 -0.11613644 13.39966713 -0.16548953 18.43554688 -0.19628906 C21.09030163 -0.21786452 23.74498535 -0.25196125 26.39941406 -0.29882812 C30.2266417 -0.3658052 34.05239597 -0.39328853 37.88012695 -0.41235352 C39.06265549 -0.44018417 40.24518402 -0.46801483 41.46354675 -0.49668884 C46.88940978 -0.48317746 50.70792673 -0.44769408 54.98486328 3.12255859 C57.95939215 6.13157592 58.86361775 8.14762558 58.95214844 12.36376953 C58.97143906 13.22193771 58.99072968 14.0801059 59.01060486 14.96427917 C59.06841913 18.90078516 59.11764953 22.83710804 59.1484375 26.77392578 C59.16999331 28.84668666 59.20406733 30.91935711 59.25097656 32.99169922 C59.31811092 35.98503139 59.34546077 38.97647925 59.36450195 41.97045898 C59.39233261 42.89050217 59.42016327 43.81054535 59.44883728 44.75846863 C59.43019338 50.63102721 58.33706142 53.69492821 54.22938538 57.93977356 C51.34960708 60.39899215 49.1876596 60.35686134 45.48681641 60.41748047 C43.8391906 60.4464164 43.8391906 60.4464164 42.15827942 60.47593689 C37.12264192 60.5336169 32.08714927 60.58296999 27.05126953 60.61376953 C24.39651478 60.63534499 21.74183106 60.66944172 19.08740234 60.71630859 C15.2601747 60.78328567 11.43442044 60.810769 7.60668945 60.82983398 C6.42416092 60.85766464 5.24163239 60.8854953 4.02326965 60.91416931 C-1.40259338 60.90065793 -5.22111032 60.86517455 -9.49804688 57.29492188 C-12.47257574 54.28590455 -13.37680135 52.26985489 -13.46533203 48.05371094 C-13.48462265 47.19554276 -13.50391327 46.33737457 -13.52378845 45.45320129 C-13.58160272 41.51669531 -13.63083312 37.58037242 -13.66162109 33.64355469 C-13.6831769 31.57079381 -13.71725092 29.49812336 -13.76416016 27.42578125 C-13.83129451 24.43244908 -13.85864436 21.44100122 -13.87768555 18.44702148 C-13.9055162 17.5269783 -13.93334686 16.60693512 -13.96202087 15.65901184 C-13.94337697 9.78645326 -12.85024502 6.72255225 -8.74256897 2.47770691 C-5.86279067 0.01848832 -3.70084319 0.06061913 0 0 Z " fill="#4889C7" transform="translate(17.256591796875,9.791259765625)"/>
<path d="M0 0 C1.11069351 -0.00287018 2.22138702 -0.00574036 3.36573792 -0.00869751 C5.71168529 -0.01073651 8.05764972 -0.0052182 10.40356445 0.00732422 C13.98753047 0.02336421 17.57036612 0.00747692 21.15429688 -0.01171875 C23.4362004 -0.00973599 25.71810322 -0.00589165 28 0 C29.06890976 -0.00607269 30.13781952 -0.01214539 31.23912048 -0.0184021 C36.74242698 0.0334084 40.85484931 0.21270607 45.56640625 3.3984375 C48.60135829 7.13327366 48.91000112 9.97605991 48.75390625 14.7109375 C48.71330078 16.31388672 48.71330078 16.31388672 48.671875 17.94921875 C48.63707031 18.75746094 48.60226563 19.56570312 48.56640625 20.3984375 C44.79583078 20.51441403 41.02571232 20.58561146 37.25390625 20.6484375 C36.18205078 20.68195312 35.11019531 20.71546875 34.00585938 20.75 C32.46381836 20.76933594 32.46381836 20.76933594 30.890625 20.7890625 C29.94276123 20.81000977 28.99489746 20.83095703 28.01831055 20.85253906 C25.56640625 20.3984375 25.56640625 20.3984375 23.76098633 18.53417969 C22.27059026 15.86955986 22.02690473 14.40423167 22.56640625 11.3984375 C24.94510116 8.74527779 26.23765278 8.41740405 29.81640625 8.2109375 C31.17765625 8.30375 31.17765625 8.30375 32.56640625 8.3984375 C32.56640625 7.7384375 32.56640625 7.0784375 32.56640625 6.3984375 C31.10531562 6.65397804 29.64752529 6.92844122 28.19140625 7.2109375 C26.97324219 7.43716797 26.97324219 7.43716797 25.73046875 7.66796875 C23.20819984 8.27388692 23.20819984 8.27388692 21.56640625 11.3984375 C21.10283953 15.02971017 21.06995556 16.71811619 23.25390625 19.7109375 C25.78163258 21.55549455 27.52576026 21.8891419 30.56640625 22.3984375 C30.9106801 26.45321842 31.10147765 30.35567578 30.56640625 34.3984375 C27.75390625 36.8984375 27.75390625 36.8984375 24.56640625 38.3984375 C21.92389655 40.95286355 21.59659463 42.12171065 21.19140625 45.8359375 C21.58545507 49.57940125 22.40757478 51.37607344 24.56640625 54.3984375 C24.89640625 55.0584375 25.22640625 55.7184375 25.56640625 56.3984375 C18.30640625 56.3984375 11.04640625 56.3984375 3.56640625 56.3984375 C4.88640625 54.0884375 6.20640625 51.7784375 7.56640625 49.3984375 C8.10352852 45.9966631 8.34193576 43.73492314 6.578125 40.6953125 C4.14729754 37.59469048 2.12379124 36.17712999 -1.43359375 34.3984375 C-1.43359375 30.4384375 -1.43359375 26.4784375 -1.43359375 22.3984375 C-0.31984375 22.1303125 0.79390625 21.8621875 1.94140625 21.5859375 C5.78481576 20.74034731 5.78481576 20.74034731 7.56640625 17.3984375 C7.90598188 13.32352998 7.87973111 11.86842479 5.56640625 8.3984375 C3.38135496 7.60405827 3.38135496 7.60405827 0.94140625 7.2109375 C-0.28449219 6.97310547 -0.28449219 6.97310547 -1.53515625 6.73046875 C-2.16164063 6.62089844 -2.788125 6.51132812 -3.43359375 6.3984375 C-3.43359375 7.0584375 -3.43359375 7.7184375 -3.43359375 8.3984375 C-2.52609375 8.3159375 -1.61859375 8.2334375 -0.68359375 8.1484375 C2.56640625 8.3984375 2.56640625 8.3984375 5.00390625 10.0234375 C6.56640625 12.3984375 6.56640625 12.3984375 6.50390625 15.5234375 C5.56640625 18.3984375 5.56640625 18.3984375 2.56640625 20.3984375 C0.20629883 20.62548828 0.20629883 20.62548828 -2.5390625 20.59375 C-3.52197266 20.58730469 -4.50488281 20.58085938 -5.51757812 20.57421875 C-6.54173828 20.55746094 -7.56589844 20.54070313 -8.62109375 20.5234375 C-9.65685547 20.51441406 -10.69261719 20.50539063 -11.75976562 20.49609375 C-14.3179406 20.4725161 -16.87565123 20.4396078 -19.43359375 20.3984375 C-19.51520123 18.50333051 -19.57305834 16.60719246 -19.62109375 14.7109375 C-19.65589844 13.65519531 -19.69070312 12.59945313 -19.7265625 11.51171875 C-19.310553 7.09092446 -17.90106912 4.64977455 -14.53564453 1.7800293 C-9.77213511 -0.34154318 -5.15726915 -0.02924411 0 0 Z " fill="#DDEFFD" transform="translate(25.43359375,11.6015625)"/>
<path d="M0 0 C1.82683067 -0.01073296 1.82683067 -0.01073296 3.69056702 -0.02168274 C6.26172148 -0.02945437 8.83294201 -0.02445922 11.40405273 -0.00756836 C15.33118657 0.0116382 19.25477309 -0.02772323 23.18164062 -0.07226562 C25.68359585 -0.07255603 28.18555431 -0.06941496 30.6875 -0.0625 C31.85748032 -0.07778244 33.02746063 -0.09306488 34.2328949 -0.10881042 C40.69703418 -0.01674214 44.58285953 0.54131076 49.22853088 5.21818542 C51.30128102 7.81614254 51.55062131 9.60274289 51.61889648 12.85424805 C51.6381871 13.71241623 51.65747772 14.57058441 51.67735291 15.45475769 C51.73516717 19.39126367 51.78439757 23.32758656 51.81518555 27.2644043 C51.83674135 29.33716517 51.87081537 31.40983562 51.91772461 33.48217773 C51.98485896 36.47550991 52.01220881 39.46695776 52.03125 42.4609375 C52.05908066 43.38098068 52.08691132 44.30102386 52.11558533 45.24894714 C52.09660106 51.22871613 50.93045749 54.25198795 46.70082092 58.52790833 C46.27490158 58.91444077 45.84898224 59.30097321 45.41015625 59.69921875 C43.92515625 59.20421875 43.92515625 59.20421875 42.41015625 58.69921875 C43.07015625 57.70921875 43.73015625 56.71921875 44.41015625 55.69921875 C45.07015625 55.69921875 45.73015625 55.69921875 46.41015625 55.69921875 C48.66449239 50.13852293 49.00977453 44.62065365 49.41015625 38.69921875 C46.32610817 38.80942732 43.24324433 38.93997689 40.16015625 39.07421875 C39.28746094 39.10515625 38.41476563 39.13609375 37.515625 39.16796875 C36.67128906 39.20664062 35.82695313 39.2453125 34.95703125 39.28515625 C34.18198242 39.31657715 33.40693359 39.34799805 32.60839844 39.38037109 C30.16842055 39.7342817 28.51438617 40.42831886 26.41015625 41.69921875 C24.10448312 44.92716113 24.08646193 47.81488694 24.41015625 51.69921875 C25.4491437 54.37090077 26.36690104 55.65596354 28.41015625 57.69921875 C25.41015625 57.69921875 25.41015625 57.69921875 23.78515625 56.38671875 C21.74121393 53.87824408 21.40018188 51.62512343 20.97265625 48.44921875 C21.54369846 43.55457125 23.60820612 40.78612321 27.41015625 37.69921875 C29.39015625 37.20421875 29.39015625 37.20421875 31.41015625 36.69921875 C31.41015625 32.73921875 31.41015625 28.77921875 31.41015625 24.69921875 C30.31703125 24.61671875 29.22390625 24.53421875 28.09765625 24.44921875 C24.41015625 23.69921875 24.41015625 23.69921875 22.47265625 22.01171875 C21.04881675 18.91277395 20.85861798 17.07739063 21.41015625 13.69921875 C23.47265625 10.82421875 23.47265625 10.82421875 26.41015625 8.69921875 C30.22265625 8.38671875 30.22265625 8.38671875 33.41015625 8.69921875 C33.41015625 9.35921875 33.41015625 10.01921875 33.41015625 10.69921875 C32.84425781 10.83199219 32.27835938 10.96476562 31.6953125 11.1015625 C30.59509766 11.36646484 30.59509766 11.36646484 29.47265625 11.63671875 C28.74175781 11.81074219 28.01085938 11.98476563 27.2578125 12.1640625 C25.41045727 12.53809444 25.41045727 12.53809444 24.41015625 13.69921875 C24.55174287 18.04015565 24.55174287 18.04015565 26.41015625 21.69921875 C28.11579403 21.8566248 29.82742869 21.95015267 31.5390625 22.015625 C32.57353516 22.05751953 33.60800781 22.09941406 34.67382812 22.14257812 C35.76244141 22.18189453 36.85105469 22.22121094 37.97265625 22.26171875 C39.06513672 22.30490234 40.15761719 22.34808594 41.28320312 22.39257812 C43.99205189 22.49903943 46.70099617 22.60105391 49.41015625 22.69921875 C49.32386963 21.39053833 49.32386963 21.39053833 49.23583984 20.05541992 C49.09863281 17.97444661 48.96142578 15.89347331 48.82421875 13.8125 C48.40397815 10.65276642 48.05058729 8.43806707 46.41015625 5.69921875 C40.78711402 3.02465352 34.93079463 3.41053926 28.84375 3.43359375 C27.17627464 3.43072357 27.17627464 3.43072357 25.47511292 3.42779541 C23.13094862 3.42643751 20.7867767 3.43010632 18.44262695 3.43847656 C14.85676185 3.44919154 11.27139656 3.4385624 7.68554688 3.42578125 C5.40494681 3.42710272 3.12434706 3.42966484 0.84375 3.43359375 C-0.22718399 3.42954529 -1.29811798 3.42549683 -2.40150452 3.42132568 C-3.90347633 3.43078217 -3.90347633 3.43078217 -5.43579102 3.44042969 C-6.31260025 3.44202087 -7.18940948 3.44361206 -8.0927887 3.44525146 C-10.93568418 3.73439305 -13.0441055 4.40614426 -15.58984375 5.69921875 C-16.9506241 8.22294776 -16.9506241 8.22294776 -17.58984375 10.69921875 C-18.57984375 10.69921875 -19.56984375 10.69921875 -20.58984375 10.69921875 C-19.4910474 6.85343152 -17.79522743 4.26817399 -14.65353394 1.76010132 C-10.15398819 -0.55298312 -4.94447782 -0.02946467 0 0 Z " fill="#4A8AC8" transform="translate(24.58984375,9.30078125)"/>
<path d="M0 0 C1.26650391 0.00966797 1.26650391 0.00966797 2.55859375 0.01953125 C3.43128906 0.03628906 4.30398437 0.05304687 5.203125 0.0703125 C6.53537109 0.08384766 6.53537109 0.08384766 7.89453125 0.09765625 C10.08100558 0.12116673 12.26692594 0.15402751 14.453125 0.1953125 C15.04008152 12.4127038 15.04008152 12.4127038 11.453125 17.1953125 C6.98670184 20.54512987 2.43698023 20.75767222 -2.98046875 20.625 C-6.7600466 19.99219397 -8.36689586 18.2472833 -10.546875 15.1953125 C-11.95688164 12.37529923 -11.79235951 10.32523995 -11.546875 7.1953125 C-9.03792651 1.67562582 -5.97145208 -0.0806953 0 0 Z " fill="#DCEEFD" transform="translate(59.546875,47.8046875)"/>
<path d="M0 0 C2.87557703 -0.08138426 5.74882262 -0.14067851 8.625 -0.1875 C9.43324219 -0.21263672 10.24148437 -0.23777344 11.07421875 -0.26367188 C16.1572949 -0.32566061 19.5907755 0.17534056 24 3 C26.39200824 6.15310177 26.39458572 9.13305998 26 13 C24.7034255 16.00259359 23.70082165 17.55402258 20.9375 19.3125 C15.56491163 20.5699143 10.26127877 20.86602166 5.0625 18.875 C1.58310611 15.71191465 0.12077922 12.90621118 -0.1796875 8.1640625 C-0.18670177 5.43551039 -0.13092336 2.72514544 0 0 Z " fill="#DCEEFD" transform="translate(6,48)"/>
<path d="M0 0 C5.28 0 10.56 0 16 0 C16 3.96 16 7.92 16 12 C10.72 12 5.44 12 0 12 C0 8.04 0 4.08 0 0 Z " fill="#DFF0FE" transform="translate(58,34)"/>
<path d="M0 0 C5.28 0 10.56 0 16 0 C16 3.96 16 7.92 16 12 C10.72 12 5.44 12 0 12 C0 8.04 0 4.08 0 0 Z " fill="#DFF0FE" transform="translate(6,34)"/>
<path d="M0 0 C8.19788853 0.34372698 8.19788853 0.34372698 11.0625 2.6875 C12.31903468 5.7869522 12.54193621 7.68064069 12 11 C9.5 13.875 9.5 13.875 7 16 C6.67 15.01 6.34 14.02 6 13 C6.515625 12.62875 7.03125 12.2575 7.5625 11.875 C9.36319983 9.96826848 9.36319983 9.96826848 8.6875 6.8125 C8.460625 5.884375 8.23375 4.95625 8 4 C5.36 3.34 2.72 2.68 0 2 C0 1.34 0 0.68 0 0 Z " fill="#5B95CE" transform="translate(22,18)"/>
<path d="M0 0 C0 0.66 0 1.32 0 2 C-0.56589844 2.13277344 -1.13179687 2.26554687 -1.71484375 2.40234375 C-2.81505859 2.66724609 -2.81505859 2.66724609 -3.9375 2.9375 C-5.03384766 3.19853516 -5.03384766 3.19853516 -6.15234375 3.46484375 C-7.99969898 3.83887569 -7.99969898 3.83887569 -9 5 C-8.65504062 9.57071175 -8.14340842 12.58325171 -5 16 C-8.65316671 14.75023244 -9.78065836 14.32901247 -12 11 C-12.61420709 6.96378195 -12.34355123 5.47888959 -9.9375 2.125 C-6.34962488 -0.47048413 -4.3322929 -0.4247346 0 0 Z " fill="#5A95CE" transform="translate(58,18)"/>
<path d="M0 0 C3.82440382 1.50244436 5.83472958 3.52010111 8 7 C8.32670315 10.7897565 8.20190901 13.39427296 7 17 C6.01 16.67 5.02 16.34 4 16 C4.33 15.34 4.66 14.68 5 14 C5.25142397 10.14483246 5.37261063 7.16348085 3 4 C0.46229997 2.71745356 0.46229997 2.71745356 -2 2 C-1.34 1.34 -0.68 0.68 0 0 Z " fill="#5B96CE" transform="translate(26,47)"/>
<path d="M0 0 C0.66 0 1.32 0 2 0 C2.16435547 0.90492187 2.16435547 0.90492187 2.33203125 1.828125 C3.50797128 7.93684987 3.50797128 7.93684987 7 13 C4 13 4 13 2.375 11.6875 C-0.54582554 8.10285047 -0.08326045 4.41280382 0 0 Z " fill="#5692CC" transform="translate(46,54)"/>
</svg>
